{
  "accessors": [
    {
      "bufferView": 2,
      "componentType": 5126,
      "count": 1618,
      "max": [
        1.4385099411010742,
        0.27087798714637756,
        4.220037937164307
      ],
      "min": [
        -1.4347649812698364,
        -0.3422679901123047,
        0.00634300010278821
      ],
      "type": "VEC3"
    },
    {
      "bufferView": 2,
      "byteOffset": 19416,
      "componentType": 5126,
      "count": 1618,
      "max": [
        0.9998005032539368,
        0.9997842907905579,
        0.9989863038063049
      ],
      "min": [
        -0.9996030926704407,
        -0.9997479319572449,
        -0.9997393488883972
      ],
      "type": "VEC3"
    },
    {
      "bufferView": 1,
      "componentType": 5126,
      "count": 1618,
      "max": [
        0.9935910105705261,
        0.8908519744873047
      ],
      "min": [
        0.008086999878287315,
        0.0038530000019818544
      ],
      "type": "VEC2"
    },
    {
      "bufferView": 0,
      "componentType": 5125,
      "count": 7920,
      "type": "SCALAR"
    },
    {
      "bufferView": 2,
      "byteOffset": 38832,
      "componentType": 5126,
      "count": 580,
      "max": [
        0.6316390037536621,
        0.29690998792648315,
        0.3439129889011383
      ],
      "min": [
        -0.6431779861450195,
        -0.4361329972743988,
        0.0006990000256337225
      ],
      "type": "VEC3"
    },
    {
      "bufferView": 2,
      "byteOffset": 45792,
      "componentType": 5126,
      "count": 580,
      "max": [
        0.9986446499824524,
        0.9951984286308289,
        0.9957045316696167
      ],
      "min": [
        -0.9993710517883301,
        -0.9993128776550293,
        -0.999984860420227
      ],
      "type": "VEC3"
    },
    {
      "bufferView": 1,
      "byteOffset": 12944,
      "componentType": 5126,
      "count": 580,
      "max": [
        0.9845269918441772,
        0.9859009981155396
      ],
      "min": [
        0.020736999809741974,
        0.016419000923633575
      ],
      "type": "VEC2"
    },
    {
      "bufferView": 0,
      "byteOffset": 31680,
      "componentType": 5125,
      "count": 2202,
      "type": "SCALAR"
    },
    {
      "bufferView": 2,
      "byteOffset": 52752,
      "componentType": 5126,
      "count": 783,
      "max": [
        0.5751960277557373,
        0.31341999769210815,
        2.544358015060425
      ],
      "min": [
        -0.5827649831771851,
        -0.27536800503730774,
        0.22431300580501556
      ],
      "type": "VEC3"
    },
    {
      "bufferView": 2,
      "byteOffset": 62148,
      "componentType": 5126,
      "count": 783,
      "max": [
        0.9977232813835144,
        0.9996057152748108,
        0.9740203022956848
      ],
      "min": [
        -0.9998100399971008,
        -0.9995501637458801,
        -0.9889719486236572
      ],
      "type": "VEC3"
    },
    {
      "bufferView": 1,
      "byteOffset": 17584,
      "componentType": 5126,
      "count": 783,
      "max": [
        0.9978939890861511,
        0.9889370203018188
      ],
      "min": [
        0.0027920000720769167,
        0.004211000166833401
      ],
      "type": "VEC2"
    },
    {
      "bufferView": 0,
      "byteOffset": 40488,
      "componentType": 5125,
      "count": 3858,
      "type": "SCALAR"
    },
    {
      "bufferView": 2,
      "byteOffset": 71544,
      "componentType": 5126,
      "count": 931,
      "max": [
        1.2749079465866089,
        0.3498679995536804,
        3.8131279945373535
      ],
      "min": [
        -1.2628949880599976,
        -0.3541949987411499,
        2.2727880477905273
      ],
      "type": "VEC3"
    },
    {
      "bufferView": 2,
      "byteOffset": 82716,
      "componentType": 5126,
      "count": 931,
      "max": [
        0.9991872310638428,
        0.9998664855957031,
        0.948118269443512
      ],
      "min": [
        -0.9998021721839905,
        -0.9998666048049927,
        -0.9994286298751831
      ],
      "type": "VEC3"
    },
    {
      "bufferView": 1,
      "byteOffset": 23848,
      "componentType": 5126,
      "count": 931,
      "max": [
        0.9942929744720459,
        0.9927060008049011
      ],
      "min": [
        0.01129200030118227,
        0.007400999777019024
      ],
      "type": "VEC2"
    },
    {
      "bufferView": 0,
      "byteOffset": 55920,
      "componentType": 5125,
      "count": 4506,
      "type": "SCALAR"
    },
    {
      "bufferView": 2,
      "byteOffset": 93888,
      "componentType": 5126,
      "count": 113,
      "max": [
        0.1969909965991974,
        0.23686900734901428,
        3.9020891189575195
      ],
      "min": [
        -0.1928739994764328,
        -0.29998400807380676,
        3.651599884033203
      ],
      "type": "VEC3"
    },
    {
      "bufferView": 2,
      "byteOffset": 95244,
      "componentType": 5126,
      "count": 113,
      "max": [
        0.9738010764122009,
        0.994985044002533,
        0.35531723499298096
      ],
      "min": [
        -0.9554780125617981,
        -0.9904747009277344,
        -0.99936842918396
      ],
      "type": "VEC3"
    },
    {
      "bufferView": 1,
      "byteOffset": 31296,
      "componentType": 5126,
      "count": 113,
      "max": [
        0.24896599352359772,
        0.9843140244483948
      ],
      "min": [
        0.019759999588131905,
        0.01422099955379963
      ],
      "type": "VEC2"
    },
    {
      "bufferView": 0,
      "byteOffset": 73944,
      "componentType": 5125,
      "count": 558,
      "type": "SCALAR"
    },
    {
      "bufferView": 2,
      "byteOffset": 96600,
      "componentType": 5126,
      "count": 37,
      "max": [
        0.043529000133275986,
        0.22158299386501312,
        4.264921188354492
      ],
      "min": [
        -0.04337399825453758,
        0.13668900728225708,
        4.175424098968506
      ],
      "type": "VEC3"
    },
    {
      "bufferView": 2,
      "byteOffset": 97044,
      "componentType": 5126,
      "count": 37,
      "max": [
        0.9225687384605408,
        0.9707534313201904,
        0.9675620198249817
      ],
      "min": [
        -0.9405999779701233,
        -0.9529904723167419,
        -0.9796637296676636
      ],
      "type": "VEC3"
    },
    {
      "bufferView": 1,
      "byteOffset": 32200,
      "componentType": 5126,
      "count": 37,
      "max": [
        0.46042600274086,
        0.18974600732326508
      ],
      "min": [
        0.18599200248718262,
        0.1368730068206787
      ],
      "type": "VEC2"
    },
    {
      "bufferView": 0,
      "byteOffset": 76176,
      "componentType": 5125,
      "count": 168,
      "type": "SCALAR"
    },
    {
      "bufferView": 2,
      "byteOffset": 97488,
      "componentType": 5126,
      "count": 1099,
      "max": [
        0.20330899953842163,
        0.5195509791374207,
        4.382640838623047
      ],
      "min": [
        -0.1961040049791336,
        -0.21968500316143036,
        3.7889389991760254
      ],
      "type": "VEC3"
    },
    {
      "bufferView": 2,
      "byteOffset": 110676,
      "componentType": 5126,
      "count": 1099,
      "max": [
        0.9997953772544861,
        0.9997839331626892,
        0.9981768131256104
      ],
      "min": [
        -0.997055172920227,
        -0.9988999962806702,
        -0.9696239233016968
      ],
      "type": "VEC3"
    },
    {
      "bufferView": 1,
      "byteOffset": 32496,
      "componentType": 5126,
      "count": 1099,
      "max": [
        0.8960250020027161,
        0.7204390168190002
      ],
      "min": [
        0.051743000745773315,
        0.02160700038075447
      ],
      "type": "VEC2"
    },
    {
      "bufferView": 0,
      "byteOffset": 76848,
      "componentType": 5125,
      "count": 3777,
      "type": "SCALAR"
    }
  ],
  "asset": {
    "extras": {
      "author": "PACE GAMING FF (https://sketchfab.com/MDARBAZ_.OR___-PACEGAMINGFF)",
      "license": "CC-BY-4.0 (http://creativecommons.org/licenses/by/4.0/)",
      "source": "https://sketchfab.com/3d-models/freefire-new-3d-model-by-pace-gaming-0ca2b5c9fa6e42198b5634bcd06b71e5",
      "title": "freefire new 3d model by pace gaming"
    },
    "generator": "Sketchfab-14.64.0",
    "version": "2.0"
  },
  "bufferViews": [
    {
      "buffer": 0,
      "byteLength": 91956,
      "name": "floatBufferViews",
      "target": 34963
    },
    {
      "buffer": 0,
      "byteLength": 41288,
      "byteOffset": 91956,
      "byteStride": 8,
      "name": "floatBufferViews",
      "target": 34962
    },
    {
      "buffer": 0,
      "byteLength": 123864,
      "byteOffset": 133244,
      "byteStride": 12,
      "name": "floatBufferViews",
      "target": 34962
    }
  ],
  "buffers": [
    {
      "byteLength": 257108,
      "uri": "scene.bin"
    }
  ],
  "images": [
    {
      "uri": "textures/mat0.044_baseColor.png"
    },
    {
      "uri": "textures/mat0.045_baseColor.png"
    },
    {
      "uri": "textures/mat0.046_baseColor.png"
    },
    {
      "uri": "textures/mat0.047_baseColor.png"
    },
    {
      "uri": "textures/mat0.048_baseColor.png"
    },
    {
      "uri": "textures/mat0.050_baseColor.png"
    }
  ],
  "materials": [
    {
      "doubleSided": true,
      "name": "mat0.044",
      "pbrMetallicRoughness": {
        "baseColorTexture": {
          "index": 0
        },
        "metallicFactor": 0.0,
        "roughnessFactor": 0.6342256411356907
      }
    },
    {
      "doubleSided": true,
      "name": "mat0.045",
      "pbrMetallicRoughness": {
        "baseColorTexture": {
          "index": 1
        },
        "metallicFactor": 0.0,
        "roughnessFactor": 0.6342256411356907
      }
    },
    {
      "doubleSided": true,
      "name": "mat0.046",
      "pbrMetallicRoughness": {
        "baseColorTexture": {
          "index": 2
        },
        "metallicFactor": 0.0,
        "roughnessFactor": 0.6342256411356907
      }
    },
    {
      "doubleSided": true,
      "name": "mat0.047",
      "pbrMetallicRoughness": {
        "baseColorTexture": {
          "index": 3
        },
        "metallicFactor": 0.0,
        "roughnessFactor": 0.6342256411356907
      }
    },
    {
      "doubleSided": true,
      "name": "mat0.048",
      "pbrMetallicRoughness": {
        "baseColorTexture": {
          "index": 4
        },
        "metallicFactor": 0.0,
        "roughnessFactor": 0.6342256411356907
      }
    },
    {
      "doubleSided": true,
      "name": "mat0.049",
      "pbrMetallicRoughness": {
        "baseColorFactor": [
          0.8,
          0.8,
          0.8,
          1.0
        ],
        "metallicFactor": 0.0,
        "roughnessFactor": 0.6342256411356907
      }
    },
    {
      "doubleSided": true,
      "name": "mat0.050",
      "pbrMetallicRoughness": {
        "baseColorTexture": {
          "index": 5
        },
        "metallicFactor": 0.0,
        "roughnessFactor": 0.6342256411356907
      }
    }
  ],
  "meshes": [
    {
      "name": "Object_0",
      "primitives": [
        {
          "attributes": {
            "NORMAL": 1,
            "POSITION": 0,
            "TEXCOORD_0": 2
          },
          "indices": 3,
          "material": 0,
          "mode": 4
        }
      ]
    },
    {
      "name": "Object_1",
      "primitives": [
        {
          "attributes": {
            "NORMAL": 5,
            "POSITION": 4,
            "TEXCOORD_0": 6
          },
          "indices": 7,
          "material": 1,
          "mode": 4
        }
      ]
    },
    {
      "name": "Object_2",
      "primitives": [
        {
          "attributes": {
            "NORMAL": 9,
            "POSITION": 8,
            "TEXCOORD_0": 10
          },
          "indices": 11,
          "material": 2,
          "mode": 4
        }
      ]
    },
    {
      "name": "Object_3",
      "primitives": [
        {
          "attributes": {
            "NORMAL": 13,
            "POSITION": 12,
            "TEXCOORD_0": 14
          },
          "indices": 15,
          "material": 3,
          "mode": 4
        }
      ]
    },
    {
      "name": "Object_4",
      "primitives": [
        {
          "attributes": {
            "NORMAL": 17,
            "POSITION": 16,
            "TEXCOORD_0": 18
          },
          "indices": 19,
          "material": 4,
          "mode": 4
        }
      ]
    },
    {
      "name": "Object_5",
      "primitives": [
        {
          "attributes": {
            "NORMAL": 21,
            "POSITION": 20,
            "TEXCOORD_0": 22
          },
          "indices": 23,
          "material": 5,
          "mode": 4
        }
      ]
    },
    {
      "name": "Object_6",
      "primitives": [
        {
          "attributes": {
            "NORMAL": 25,
            "POSITION": 24,
            "TEXCOORD_0": 26
          },
          "indices": 27,
          "material": 6,
          "mode": 4
        }
      ]
    }
  ],
  "nodes": [
    {
      "children": [
        1
      ],
      "matrix": [
        1.0,
        0.0,
        0.0,
        0.0,
        0.0,
        2.220446049250313e-16,
        -1.0,
        0.0,
        0.0,
        1.0,
        2.220446049250313e-16,
        0.0,
        0.0,
        0.0,
        0.0,
        1.0
      ],
      "name": "Sketchfab_model"
    },
    {
      "children": [
        2,
        3,
        4,
        5,
        6,
        7,
        8
      ],
      "name": "7.obj.cleaner.materialmerger.gles"
    },
    {
      "mesh": 0,
      "name": "Object_2"
    },
    {
      "mesh": 1,
      "name": "Object_3"
    },
    {
      "mesh": 2,
      "name": "Object_4"
    },
    {
      "mesh": 3,
      "name": "Object_5"
    },
    {
      "mesh": 4,
      "name": "Object_6"
    },
    {
      "mesh": 5,
      "name": "Object_7"
    },
    {
      "mesh": 6,
      "name": "Object_8"
    }
  ],
  "samplers": [
    {
      "magFilter": 9729,
      "minFilter": 9987,
      "wrapS": 10497,
      "wrapT": 10497
    }
  ],
  "scene": 0,
  "scenes": [
    {
      "name": "Sketchfab_Scene",
      "nodes": [
        0
      ]
    }
  ],
  "textures": [
    {
      "sampler": 0,
      "source": 0
    },
    {
      "sampler": 0,
      "source": 1
    },
    {
      "sampler": 0,
      "source": 2
    },
    {
      "sampler": 0,
      "source": 3
    },
    {
      "sampler": 0,
      "source": 4
    },
    {
      "sampler": 0,
      "source": 5
    }
  ]
}
